<svg width="100%" height="100%" viewBox="0 0 72 72" fill="none" xmlns="http://www.w3.org/2000/svg">
    <rect x="0.371094" y="0.29541" width="71.2566" height="71.2566" rx="4" fill="#1C262F"/>
    <rect x="0.871094" y="0.79541" width="70.2566" height="70.2566" rx="3.5" stroke="#E7F0F6" stroke-opacity="0.1"/>
    <g clip-path="url(#clip0_1143_9098)">
        <path d="M53.0835 21.5916C53.0835 21.938 53.0049 22.2685 52.8583 22.5616L37.9256 52.9657L37.9099 52.9924C37.5591 53.7065 36.8365 54.1968 35.9988 54.1968C35.161 54.1968 34.4385 53.7065 34.0877 52.9924L34.072 52.9657L19.1392 22.5616C18.9926 22.2685 18.9141 21.938 18.9141 21.5916C18.9141 20.3925 19.8722 19.4172 21.0503 19.4172C21.888 19.4172 22.6106 19.9075 22.9614 20.6217L22.9771 20.6483L35.9988 47.162L49.0204 20.6483L49.0361 20.6217C49.3869 19.9075 50.1095 19.4172 50.9472 19.4172C52.1253 19.4172 53.0835 20.3925 53.0835 21.5916Z" fill="url(#paint0_linear_1143_9098)"/>
        <path d="M47.4914 20.8775C47.4914 21.112 47.439 21.3358 47.3396 21.5277L37.2919 41.9819L37.2814 41.9978C37.0458 42.4775 36.5589 42.8079 35.9934 42.8079C35.4279 42.8079 34.941 42.4775 34.7054 41.9978L34.6949 41.9819L24.6577 21.533C24.5582 21.3358 24.5059 21.112 24.5059 20.8828C24.5059 20.0728 25.1499 19.4226 25.9405 19.4226C26.506 19.4226 26.9929 19.753 27.2285 20.2326L27.239 20.2486L35.9986 38.0861L44.7583 20.2433L44.7687 20.2273C45.0044 19.7477 45.4913 19.4172 46.0568 19.4172C46.8526 19.4172 47.4914 20.0728 47.4914 20.8775Z" fill="url(#paint1_linear_1143_9098)"/>
    </g>
    <defs>
        <linearGradient id="paint0_linear_1143_9098" x1="35.9988" y1="19.4172" x2="35.9988" y2="54.1968" gradientUnits="userSpaceOnUse">
            <stop stop-color="#BFBFBF"/>
            <stop offset="1" stop-color="white"/>
        </linearGradient>
        <linearGradient id="paint1_linear_1143_9098" x1="35.9986" y1="19.4172" x2="35.9986" y2="42.8079" gradientUnits="userSpaceOnUse">
            <stop stop-color="#B6A189"/>
            <stop offset="1" stop-color="#F2E1CC"/>
        </linearGradient>
        <clipPath id="clip0_1143_9098">
            <rect width="34.1694" height="34.7796" fill="white" transform="translate(18.9141 19.4172)"/>
        </clipPath>
    </defs>
</svg>
